<svg width="1024" height="224" viewBox="0 0 1024 224" fill="none" xmlns="http://www.w3.org/2000/svg">
<g clip-path="url(#clip0)">
<rect width="1024" height="224" fill="white"/>
<g opacity="0.5">
<path opacity="0.5" fill-rule="evenodd" clip-rule="evenodd" d="M519.8 516H543V521.8H519.8V545H514V521.8H461.8V545H456V521.8H403.8V545H398V521.8H345.8V545H340V521.8H287.8V545H282V521.8H229.8V545H224V521.8H171.8V545H166V521.8H113.8V545H108V521.8H55.8V545H50V521.8H-37V516H50V463.8H-37V458H50V405.8H-37V400H50V347.8H-37V342H50V289.8H-37V284H50V231.8H-37V226H50V173.8H-37V168H50V115.8H-37V110H50V57.8H-37V52H50V-35H55.8V52H108V-35H113.8V52H166V-35H171.8V52H224V-35H229.8V52H282V-35H287.8V52H340V-35H345.8V52H398V-35H403.8V52H456V-35H461.8V52H514V-35H519.8V52H543V57.8H519.8V110H543V115.8H519.8V168H543V173.8H519.8V226H543V231.8H519.8V284H543V289.8H519.8V342H543V347.8H519.8V400H543V405.8H519.8V458H543V463.8H519.8V516ZM514 516V463.8H461.8V516H514ZM456 516V463.8H403.8V516H456ZM398 516V463.8H345.8V516H398ZM340 516V463.8H287.8V516H340ZM282 516V463.8H229.8V516H282ZM224 516V463.8H171.8V516H224ZM166 516V463.8H113.8V516H166ZM108 516V463.8H55.8V516H108ZM55.8 458H108V405.8H55.8V458ZM113.8 458H166V405.8H113.8V458ZM171.8 458H224V405.8H171.8V458ZM229.8 458H282V405.8H229.8V458ZM287.8 458H340V405.8H287.8V458ZM345.8 458H398V405.8H345.8V458ZM403.8 458H456V405.8H403.8V458ZM461.8 458H514V405.8H461.8V458ZM514 400V347.8H461.8V400H514ZM456 400V347.8H403.8V400H456ZM398 400V347.8H345.8V400H398ZM340 400V347.8H287.8V400H340ZM282 400V347.8H229.8V400H282ZM224 400V347.8H171.8V400H224ZM166 400V347.8H113.8V400H166ZM108 400V347.8H55.8V400H108ZM55.8 342H108V289.8H55.8V342ZM113.8 342H166V289.8H113.8V342ZM171.8 342H224V289.8H171.8V342ZM229.8 342H282V289.8H229.8V342ZM287.8 342H340V289.8H287.8V342ZM345.8 342H398V289.8H345.8V342ZM403.8 342H456V289.8H403.8V342ZM461.8 342H514V289.8H461.8V342ZM514 284V231.8H461.8V284H514ZM456 284V231.8H403.8V284H456ZM398 284V231.8H345.8V284H398ZM340 284V231.8H287.8V284H340ZM282 284V231.8H229.8V284H282ZM224 284V231.8H171.8V284H224ZM166 284V231.8H113.8V284H166ZM108 284V231.8H55.8V284H108ZM55.8 226H108V173.8H55.8V226ZM113.8 226H166V173.8H113.8V226ZM171.8 226H224V173.8H171.8V226ZM229.8 226H282V173.8H229.8V226ZM287.8 226H340V173.8H287.8V226ZM345.8 226H398V173.8H345.8V226ZM403.8 226H456V173.8H403.8V226ZM461.8 226H514V173.8H461.8V226ZM514 168V115.8H461.8V168H514ZM456 168V115.8H403.8V168H456ZM398 168V115.8H345.8V168H398ZM340 168V115.8H287.8V168H340ZM282 168V115.8H229.8V168H282ZM224 168V115.8H171.8V168H224ZM166 168V115.8H113.8V168H166ZM108 168V115.8H55.8V168H108ZM55.8 110H108V57.8H55.8V110ZM113.8 110H166V57.8H113.8V110ZM171.8 110H224V57.8H171.8V110ZM229.8 110H282V57.8H229.8V110ZM287.8 110H340V57.8H287.8V110ZM345.8 110H398V57.8H345.8V110ZM403.8 110H456V57.8H403.8V110ZM461.8 110H514V57.8H461.8V110Z" fill="#9E9DCF"/>
<path fill-rule="evenodd" clip-rule="evenodd" d="M-2.2 -6V-35H-8V-6H-37V-0.199999H-8V545H-2.2V-0.199999H543V-6H-2.2Z" fill="#9E9DCF"/>
</g>
<g opacity="0.5">
<path opacity="0.5" fill-rule="evenodd" clip-rule="evenodd" d="M566.2 516H543V521.8H566.2V545H572V521.8H624.2V545H630V521.8H682.2V545H688V521.8H740.2V545H746V521.8H798.2V545H804V521.8H856.2V545H862V521.8H914.2V545H920V521.8H972.2V545H978V521.8H1030.2V545H1036V521.8H1123V516H1036V463.8H1123V458H1036V405.8H1123V400H1036V347.8H1123V342H1036V289.8H1123V284H1036V231.8H1123V226H1036V173.8H1123V168H1036V115.8H1123V110H1036V57.8H1123V52H1036V-35H1030.2V52H978V-35H972.2V52H920V-35H914.2V52H862V-35H856.2V52H804V-35H798.2V52H746V-35H740.2V52H688V-35H682.2V52H630V-35H624.2V52H572V-35H566.2V52H543V57.8H566.2V110H543V115.8H566.2V168H543V173.8H566.2V226H543V231.8H566.2V284H543V289.8H566.2V342H543V347.8H566.2V400H543V405.8H566.2V458H543V463.8H566.2V516ZM572 516V463.8H624.2V516H572ZM630 516V463.8H682.2V516H630ZM688 516V463.8H740.2V516H688ZM746 516V463.8H798.2V516H746ZM804 516V463.8H856.2V516H804ZM862 516V463.8H914.2V516H862ZM920 516V463.8H972.2V516H920ZM978 516V463.8H1030.2V516H978ZM1030.2 458H978V405.8H1030.2V458ZM972.2 458H920V405.8H972.2V458ZM914.2 458H862V405.8H914.2V458ZM856.2 458H804V405.8H856.2V458ZM798.2 458H746V405.8H798.2V458ZM740.2 458H688V405.8H740.2V458ZM682.2 458H630V405.8H682.2V458ZM624.2 458H572V405.8H624.2V458ZM572 400V347.8H624.2V400H572ZM630 400V347.8H682.2V400H630ZM688 400V347.8H740.2V400H688ZM746 400V347.8H798.2V400H746ZM804 400V347.8H856.2V400H804ZM862 400V347.8H914.2V400H862ZM920 400V347.8H972.2V400H920ZM978 400V347.8H1030.2V400H978ZM1030.2 342H978V289.8H1030.2V342ZM972.2 342H920V289.8H972.2V342ZM914.2 342H862V289.8H914.2V342ZM856.2 342H804V289.8H856.2V342ZM798.2 342H746V289.8H798.2V342ZM740.2 342H688V289.8H740.2V342ZM682.2 342H630V289.8H682.2V342ZM624.2 342H572V289.8H624.2V342ZM572 284V231.8H624.2V284H572ZM630 284V231.8H682.2V284H630ZM688 284V231.8H740.2V284H688ZM746 284V231.8H798.2V284H746ZM804 284V231.8H856.2V284H804ZM862 284V231.8H914.2V284H862ZM920 284V231.8H972.2V284H920ZM978 284V231.8H1030.2V284H978ZM1030.2 226H978V173.8H1030.2V226ZM972.2 226H920V173.8H972.2V226ZM914.2 226H862V173.8H914.2V226ZM856.2 226H804V173.8H856.2V226ZM798.2 226H746V173.8H798.2V226ZM740.2 226H688V173.8H740.2V226ZM682.2 226H630V173.8H682.2V226ZM624.2 226H572V173.8H624.2V226ZM572 168V115.8H624.2V168H572ZM630 168V115.8H682.2V168H630ZM688 168V115.8H740.2V168H688ZM746 168V115.8H798.2V168H746ZM804 168V115.8H856.2V168H804ZM862 168V115.8H914.2V168H862ZM920 168V115.8H972.2V168H920ZM978 168V115.8H1030.2V168H978ZM1030.2 110H978V57.8H1030.2V110ZM972.2 110H920V57.8H972.2V110ZM914.2 110H862V57.8H914.2V110ZM856.2 110H804V57.8H856.2V110ZM798.2 110H746V57.8H798.2V110ZM740.2 110H688V57.8H740.2V110ZM682.2 110H630V57.8H682.2V110ZM624.2 110H572V57.8H624.2V110Z" fill="#9E9DCF"/>
<path fill-rule="evenodd" clip-rule="evenodd" d="M1088.2 -6V-35H1094V-6H1123V-0.199999H1094V545H1088.2V-0.199999H543V-6H1088.2Z" fill="#9E9DCF"/>
</g>
<path d="M168 63.3224C163.213 55.6589 156.047 52.1627 147.459 49.2168C139.32 46.425 126.199 44.267 117.91 47.967C108.624 52.1119 108.787 63.7738 110.613 72.3393C112.336 80.4209 119.356 87.2611 124.577 93.2298C132.131 101.867 140.308 109.956 147.459 118.941C151.787 124.379 158.375 132.749 154.577 140.055C149.083 150.622 130.093 149.649 120.252 149.92C92.5717 150.682 62.5722 146.011 36.8739 135.636C31.1564 133.328 24.3315 127.601 18 127.601" stroke="#9747FF" stroke-width="8" stroke-linecap="round" stroke-linejoin="round"/>
<path d="M247.854 70.7035C234.21 57.4429 211.415 57.8009 194.515 64.7477C184.035 69.0559 178.713 77.4908 174.035 87.4341C168.462 99.2814 170.824 111.251 178.987 121.623C182.371 125.924 186.503 129.003 191.545 131.034C206.365 137.002 222.941 140.375 238.716 142.354C265.257 145.683 294.731 148.185 321.312 143.127C323.942 142.626 336.224 139.883 330.494 136.989" stroke="#9747FF" stroke-width="8" stroke-linecap="round" stroke-linejoin="round"/>
<path d="M339 58C339.416 93.6147 342.83 129.031 346.096 164.408C346.19 165.432 348.619 185.67 347.85 185.999C347.679 186.072 346.509 182.359 346.494 182.317C345.8 180.312 344.864 178.553 344.023 176.635" stroke="#9747FF" stroke-width="8" stroke-linecap="round" stroke-linejoin="round"/>
<path d="M310 54C332.19 57.3535 354.752 57.9508 376.876 61.7482C388.211 63.694 400.061 67.7702 409.212 75.0244C414.433 79.1637 407.205 88.102 404.13 91.2006C391.567 103.858 372.648 106.02 355.783 106.199C341.157 106.354 353.357 126.33 357.762 131.12C369.51 143.894 385.302 152.833 400.082 161.569C401.785 162.576 412 167.517 412 169" stroke="#9747FF" stroke-width="8" stroke-linecap="round" stroke-linejoin="round"/>
<path d="M452 146.345C486.438 120.269 545.084 90.5629 533.512 38.1563C533.344 37.3952 532.979 39.6213 532.75 40.3661C531.431 44.653 529.96 48.8615 529.031 53.2639C522.588 83.7993 522.172 116.929 523.519 147.968C524.155 162.634 525.111 181.86 532.168 195.275C533.172 197.185 533.055 194.879 533.467 193.426" stroke="#9747FF" stroke-width="8" stroke-linecap="round" stroke-linejoin="round"/>
<path d="M461 120C470.499 123.229 479.922 125.301 489.775 127.21C512.407 131.596 534.956 135.918 557.833 138.802C575.793 141.066 593.875 143 612 143" stroke="#9747FF" stroke-width="8" stroke-linecap="round" stroke-linejoin="round"/>
<path d="M606 63.5655C606 81.9054 606.872 123.633 633.872 119.994C648.088 118.078 661.399 103.087 667.867 91.0345C668.461 89.9264 669.331 86.2571 669.217 87.5105C668.812 91.9811 668.454 96.6017 669.082 101.064C670.803 113.282 676.272 123.906 688.039 128.533C703.625 134.662 727.085 120.395 735.046 107.751C748.154 86.9328 750.367 63.8129 742.251 41.0663C740.42 35.936 740.397 35.1503 735.677 36.7291" stroke="#9747FF" stroke-width="8" stroke-linecap="round" stroke-linejoin="round"/>
<path d="M772.779 47C772.779 70.4626 770.743 93.9079 771.197 117.356C771.235 119.269 770.379 129.084 771.966 130.644C772.149 130.825 772.348 130.266 772.598 130.2C775.04 129.559 777.779 129.517 780.279 129.444C847.831 127.49 915.443 135.399 982.692 140.244C990.686 140.82 999.071 143 1007 143" stroke="#9747FF" stroke-width="8" stroke-linecap="round" stroke-linejoin="round"/>
</g>
<defs>
<clipPath id="clip0">
<rect width="1024" height="224" fill="white"/>
</clipPath>
</defs>
</svg>
